# xmcd
#
# Track frame offsets: 
#        150
#        18042
#        36029
#        56826
#        75268
#        94301
#        112421
#        128083
#        146288
#        168060
#        185210
#        215076
#        240004
#        264893
#        288046
#        308606
#        329237
#
# Disc length: 4702 seconds
#
# Revision: 0
# Processed by: cddbd v1.5.2PL0 Copyright (c) Steve Scherf et al.
# Submitted via: ExactAudioCopy v1.3
#
DISCID=e4125c11
DTITLE=Surface - Surface [2012 Expanded Edition]
DYEAR=1987
DGENRE=Soul
TTITLE0=Let's Try Again
TTITLE1=Happy
TTITLE2=We're All Searchin'
TTITLE3=Lately
TTITLE4=Gotta Make Love Tonight
TTITLE5=Who Loves You
TTITLE6=You're Fine
TTITLE7=Lady Wants A Man
TTITLE8=Girls Were Made To Love
TTITLE9=Feels So Good
TTITLE10=Happy - (The Love Mix)
TTITLE11=Happy - (12" Remix)
TTITLE12=Happy - (12" Instrumental Remix)
TTITLE13=Happy - (Extended Version)
TTITLE14=Lets Try again - (Extended Version)
TTITLE15=Lets Try again - (Instrumental)
TTITLE16=Lately - (12 Inch Version)
EXTD=
EXTT0=
EXTT1=
EXTT2=
EXTT3=
EXTT4=
EXTT5=
EXTT6=
EXTT7=
EXTT8=
EXTT9=
EXTT10=
EXTT11=
EXTT12=
EXTT13=
EXTT14=
EXTT15=
EXTT16=
PLAYORDER=
